<svg viewBox="0 0 64 64"><rect x="12" y="4" width="40" height="56" rx="3" fill="#1a1a2e"/><g fill="#d4af37"><rect x="8" y="8" width="4" height="3"/><rect x="8" y="14" width="4" height="3"/><rect x="8" y="20" width="4" height="3"/><rect x="8" y="26" width="4" height="3"/><rect x="8" y="32" width="4" height="3"/><rect x="8" y="38" width="4" height="3"/><rect x="8" y="44" width="4" height="3"/><rect x="52" y="8" width="4" height="3"/><rect x="52" y="14" width="4" height="3"/><rect x="52" y="20" width="4" height="3"/><rect x="52" y="26" width="4" height="3"/><rect x="52" y="32" width="4" height="3"/><rect x="52" y="38" width="4" height="3"/><rect x="52" y="44" width="4" height="3"/></g><rect x="18" y="6" width="28" height="24" rx="2" fill="#b8bfc6"/><rect x="20" y="8" width="24" height="20" fill="#9aa3ab"/><path d="M22 6 v-3 h20" stroke="#c8a848" fill="none"/><rect x="26" y="52" width="12" height="8" rx="1" fill="#8f969c"/><rect x="16" y="36" width="8" height="6" rx="1" fill="#333"/><rect x="40" y="36" width="8" height="6" rx="1" fill="#333"/><circle cx="32" cy="44" r="2" fill="#e74c3c"/></svg>