<svg viewBox="0 0 64 64"><rect x="8" y="22" width="48" height="16" rx="2" fill="#f3f4f6" stroke="#9ca3af"/><g><rect x="11" y="26" width="3" height="8" fill="#d4af37"/><rect x="16" y="26" width="3" height="8" fill="#d4af37"/><rect x="21" y="26" width="3" height="8" fill="#d4af37"/><rect x="26" y="26" width="3" height="8" fill="#d4af37"/><rect x="31" y="26" width="3" height="8" fill="#d4af37"/><rect x="36" y="26" width="3" height="8" fill="#d4af37"/><rect x="41" y="26" width="3" height="8" fill="#d4af37"/><rect x="46" y="26" width="3" height="8" fill="#d4af37"/></g><g stroke-width="2.5" fill="none"><path d="M12 38 q0 12 4 18" stroke="#e63c2f"/><path d="M20 38 q0 12 2 18" stroke="#f59e0b"/><path d="M28 38 q0 12 0 18" stroke="#16a34a"/><path d="M36 38 q0 12 -2 18" stroke="#2563eb"/><path d="M44 38 q0 12 -4 18" stroke="#111"/></g></svg>