<svg viewBox="0 0 64 64"><rect x="6" y="20" width="52" height="24" rx="2" fill="#b45309"/><g fill="#d4af37"><circle cx="11" cy="26" r="1.4"/><circle cx="17" cy="26" r="1.4"/><circle cx="23" cy="26" r="1.4"/><circle cx="29" cy="26" r="1.4"/><circle cx="35" cy="26" r="1.4"/><circle cx="41" cy="26" r="1.4"/><circle cx="47" cy="26" r="1.4"/><circle cx="53" cy="26" r="1.4"/><circle cx="11" cy="32" r="1.4"/><circle cx="17" cy="32" r="1.4"/><circle cx="23" cy="32" r="1.4"/><circle cx="29" cy="32" r="1.4"/><circle cx="35" cy="32" r="1.4"/><circle cx="41" cy="32" r="1.4"/><circle cx="47" cy="32" r="1.4"/><circle cx="53" cy="32" r="1.4"/><circle cx="11" cy="38" r="1.4"/><circle cx="17" cy="38" r="1.4"/><circle cx="23" cy="38" r="1.4"/><circle cx="29" cy="38" r="1.4"/><circle cx="35" cy="38" r="1.4"/><circle cx="41" cy="38" r="1.4"/><circle cx="47" cy="38" r="1.4"/><circle cx="53" cy="38" r="1.4"/></g></svg>