<svg viewBox="0 0 64 64"><rect x="8" y="10" width="48" height="44" rx="3" fill="#15803d"/><g fill="#d4af37"><circle cx="15" cy="17" r="1.6"/><circle cx="22" cy="17" r="1.6"/><circle cx="29" cy="17" r="1.6"/><circle cx="36" cy="17" r="1.6"/><circle cx="43" cy="17" r="1.6"/><circle cx="50" cy="17" r="1.6"/><circle cx="15" cy="24" r="1.6"/><circle cx="22" cy="24" r="1.6"/><circle cx="29" cy="24" r="1.6"/><circle cx="36" cy="24" r="1.6"/><circle cx="43" cy="24" r="1.6"/><circle cx="50" cy="24" r="1.6"/><circle cx="15" cy="31" r="1.6"/><circle cx="22" cy="31" r="1.6"/><circle cx="29" cy="31" r="1.6"/><circle cx="36" cy="31" r="1.6"/><circle cx="43" cy="31" r="1.6"/><circle cx="50" cy="31" r="1.6"/><circle cx="15" cy="38" r="1.6"/><circle cx="22" cy="38" r="1.6"/><circle cx="29" cy="38" r="1.6"/><circle cx="36" cy="38" r="1.6"/><circle cx="43" cy="38" r="1.6"/><circle cx="50" cy="38" r="1.6"/><circle cx="15" cy="45" r="1.6"/><circle cx="22" cy="45" r="1.6"/><circle cx="29" cy="45" r="1.6"/><circle cx="36" cy="45" r="1.6"/><circle cx="43" cy="45" r="1.6"/><circle cx="50" cy="45" r="1.6"/></g></svg>